# xmcd CD database file
#
# Track frame offsets:
#	150
#	35572
#	60576
#	99253
#	130830
#	163868
#
# Disc length: 2554 seconds
#
# Revision: 3
# Processed by: cddbd v1.5.1PL2 Copyright (c) Steve Scherf et al.
# Submitted via: CDex 1.60beta1-cs1
#
DISCID=4809f806
DTITLE=Hank Mobley - No Room For Squares
DYEAR=1963
DGENRE=Jazz
TTITLE0=Three Way Split
TTITLE1=Carolyn
TTITLE2=Up A Step
TTITLE3=No Room For Squares
TTITLE4=Me 'N You
TTITLE5=Old World, New Imports
EXTD=YEAR: 1963
EXTT0=
EXTT1=
EXTT2=
EXTT3=
EXTT4=
EXTT5=
PLAYORDER=
